<?xml version="1.0" standalone="no"?>
<!DOCTYPE svg PUBLIC "-//W3C//DTD SVG 20010904//EN"
 "http://www.w3.org/TR/2001/REC-SVG-20010904/DTD/svg10.dtd">
<svg version="1.0" xmlns="http://www.w3.org/2000/svg"
 width="594.000000pt" height="594.000000pt" viewBox="0 0 594.000000 594.000000"
 preserveAspectRatio="xMidYMid meet">
<metadata>
Created by potrace 1.14, written by Peter Selinger 2001-2017
</metadata>
<g transform="translate(0.000000,594.000000) scale(0.100000,-0.100000)"
fill="#000000" stroke="none">
<path d="M1965 4124 c-156 -33 -250 -85 -363 -202 -111 -115 -176 -286 -171
-452 10 -329 259 -598 581 -627 l67 -6 8 29 c7 29 9 122 2 128 -2 2 -26 7 -54
10 -123 16 -216 60 -297 141 -117 117 -162 265 -134 445 10 63 75 179 135 240
82 83 207 140 308 140 34 0 43 4 44 18 4 44 2 89 -4 115 -7 25 -11 27 -55 26
-26 -1 -56 -3 -67 -5z"/>
<path d="M1980 3876 c-112 -24 -226 -114 -270 -213 -49 -110 -48 -236 3 -338
59 -120 179 -204 309 -218 52 -5 58 3 57 78 -1 56 -9 70 -45 72 -122 10 -224
134 -211 257 9 90 53 154 137 201 46 25 151 26 200 2 81 -40 139 -122 143
-202 2 -54 14 -58 136 -46 24 2 8 120 -27 193 -79 166 -254 253 -432 214z"/>
<path d="M2630 3684 c0 -3 12 -20 27 -38 l26 -31 -81 -3 c-45 -2 -82 -7 -82
-12 0 -6 7 -10 15 -10 11 0 15 -11 15 -43 0 -50 13 -67 52 -67 24 0 28 -4 28
-28 0 -19 5 -29 15 -29 12 0 15 16 15 84 0 81 1 84 22 81 20 -3 21 -9 21 -68
-1 -72 4 -100 18 -100 5 0 9 38 9 85 0 78 2 85 20 85 12 0 20 -7 21 -17 0 -10
1 -47 2 -82 1 -41 7 -66 15 -68 9 -4 12 17 12 81 l0 86 95 0 c88 0 95 -1 95
-20 0 -16 -7 -20 -36 -20 -37 0 -37 -2 -17 -56 6 -16 -11 -26 -30 -18 -16 6
-44 62 -39 77 1 5 -3 7 -10 4 -22 -7 -11 -60 17 -84 28 -25 69 -30 81 -12 4 7
7 25 6 40 0 19 4 29 14 29 10 0 14 -14 14 -56 0 -40 3 -55 13 -52 8 3 13 32
15 86 3 74 5 82 22 82 18 0 20 -7 20 -83 0 -68 3 -84 15 -84 12 0 15 16 15 84
l0 83 65 0 c51 0 65 -3 65 -15 0 -8 -8 -15 -17 -16 -55 -2 -73 -16 -73 -55 0
-36 32 -66 72 -67 39 -1 75 20 59 36 -5 5 -18 3 -33 -7 -23 -15 -27 -15 -51 4
-25 20 -28 59 -3 61 6 1 25 2 41 3 26 1 30 4 28 29 -1 18 3 27 12 27 8 0 15
-7 15 -15 0 -8 7 -15 15 -15 8 0 15 7 15 16 0 9 5 14 11 12 6 -2 10 -7 10 -11
-1 -4 -1 -16 -1 -27 0 -11 -7 -20 -15 -20 -21 0 -19 -16 7 -39 22 -21 38 -19
38 5 0 8 10 14 24 14 21 0 23 -4 22 -42 -1 -32 3 -43 14 -43 12 0 15 16 15 79
0 54 4 81 13 84 28 9 9 22 -33 22 -25 0 -45 -4 -45 -10 0 -5 9 -10 19 -10 15
0 19 -7 19 -30 -1 -24 -5 -30 -24 -30 -19 0 -23 6 -26 38 -3 37 -3 37 -51 39
-38 1 -55 8 -89 37 -23 20 -46 36 -52 37 -6 0 -21 2 -32 5 -31 5 -76 -33 -69
-57 6 -17 1 -19 -45 -19 -40 0 -56 5 -77 24 -14 13 -43 32 -63 41 -33 15 -42
15 -66 3 -20 -9 -30 -22 -32 -41 -5 -43 -49 -37 -87 13 -26 34 -55 52 -55 34z
m255 -49 l30 -24 -57 -1 c-50 0 -58 3 -58 18 0 40 41 43 85 7z m299 -5 l20
-20 -56 0 c-60 0 -72 7 -62 35 9 23 70 14 98 -15z m-554 -79 c0 -28 -5 -41
-17 -45 -30 -12 -47 32 -34 82 1 1 12 2 26 2 22 0 25 -4 25 -39z"/>
<path d="M4010 3682 c0 -5 14 -21 31 -38 l30 -29 -203 -5 c-125 -4 -194 -9
-180 -14 29 -11 32 -66 3 -66 -21 0 -33 22 -25 43 7 19 -20 39 -48 35 -27 -4
-37 -42 -14 -51 11 -5 16 0 16 13 0 11 5 20 10 20 6 0 10 -13 10 -30 0 -20 -5
-30 -15 -30 -21 0 -18 -20 6 -41 23 -20 39 -17 39 7 0 8 9 14 20 14 17 0 20
-7 20 -46 0 -32 4 -44 13 -42 8 3 13 32 15 86 3 77 4 82 25 82 21 0 22 -4 22
-82 0 -56 4 -83 13 -86 9 -3 12 18 12 82 l0 86 55 0 c42 0 55 -3 55 -15 0 -10
-11 -15 -35 -15 -27 0 -35 -4 -35 -17 0 -31 17 -46 56 -52 36 -6 37 -7 20 -24
-17 -16 -20 -16 -35 -2 -22 19 -37 19 -44 1 -6 -16 8 -30 40 -40 11 -4 24 -13
27 -21 3 -8 15 -15 26 -15 20 0 20 2 6 21 -13 19 -13 23 0 37 8 8 14 26 12 41
-3 22 -7 26 -34 24 -21 -2 -34 2 -38 12 -4 12 3 15 29 15 31 0 35 3 35 25 0
24 2 25 65 25 l65 0 0 -40 c0 -38 -1 -39 -20 -28 -17 10 -18 14 -5 16 21 5 19
33 -2 29 -50 -8 -74 -56 -44 -86 16 -16 16 -19 3 -27 -8 -6 -13 -15 -11 -22 3
-8 16 -4 41 13 36 24 37 24 40 5 2 -12 8 -22 13 -23 6 -1 11 32 13 80 3 80 3
83 27 81 13 -1 21 -6 19 -10 -11 -17 17 -48 43 -48 35 0 17 -20 -20 -23 -37
-3 -34 -14 15 -52 30 -24 45 -31 50 -22 4 7 -1 19 -14 29 l-22 16 24 20 c17
14 23 28 22 55 -1 26 3 37 13 37 11 0 15 -19 17 -82 2 -54 7 -83 16 -86 9 -3
12 18 12 82 l0 86 71 0 c67 0 70 -1 67 -22 -3 -20 -8 -23 -43 -21 -59 3 -67
-1 -54 -31 16 -35 38 -40 49 -12 6 18 14 23 29 19 16 -4 21 -15 23 -51 2 -25
9 -47 16 -50 9 -3 12 17 12 79 0 66 3 84 18 95 14 11 -16 13 -194 14 l-211 0
-28 40 c-25 36 -55 53 -55 32z m210 -111 c0 -14 -18 -23 -30 -16 -6 4 -8 11
-5 16 8 12 35 12 35 0z m-160 -82 c0 -6 -7 -6 -20 1 -11 6 -20 15 -20 21 0 6
7 6 20 -1 11 -6 20 -15 20 -21z"/>
<path d="M1265 3431 c-62 -14 -105 -40 -105 -64 1 -44 38 -164 77 -249 66
-140 114 -205 229 -308 140 -127 346 -211 531 -219 60 -2 63 -1 73 24 17 46
17 118 0 120 -8 1 -44 5 -80 9 -121 14 -262 72 -375 157 -142 105 -252 280
-292 462 -9 42 -19 76 -22 76 -3 -1 -19 -5 -36 -8z"/>
<path d="M2190 3335 c0 -7 14 -18 30 -24 l30 -10 0 -186 0 -186 -30 -10 c-16
-6 -30 -17 -30 -25 0 -11 24 -14 125 -14 99 0 125 3 125 14 0 7 -15 17 -32 22
l-33 10 -3 192 -2 192 26 0 c89 0 121 -187 35 -206 -52 -11 -54 -13 -41 -29
16 -20 86 -17 131 4 48 23 72 62 76 123 5 62 -20 111 -65 130 -41 18 -342 20
-342 3z"/>
<path d="M3350 3327 c-19 -10 -24 -20 -23 -42 3 -33 17 -45 54 -45 32 0 52 21
52 56 0 42 -36 55 -83 31z"/>
<path d="M3793 3325 c-16 -11 -20 -22 -17 -42 6 -32 19 -43 55 -43 32 0 52 21
52 56 0 43 -48 58 -90 29z"/>
<path d="M3578 3278 c-32 -18 -38 -27 -38 -55 0 -18 -4 -33 -9 -33 -12 0 -41
-29 -41 -40 0 -5 10 -10 23 -12 21 -3 22 -7 25 -114 3 -125 11 -140 74 -151
48 -7 108 21 108 51 0 19 -4 22 -31 18 -43 -6 -49 7 -49 111 l0 87 39 0 c33 0
39 3 43 25 5 24 3 25 -38 25 l-44 0 0 55 c0 63 -6 66 -62 33z"/>
<path d="M2694 3171 c-40 -24 -53 -37 -62 -69 -17 -55 -15 -100 7 -148 32 -70
128 -100 220 -69 83 27 126 113 101 203 -11 42 -53 92 -77 92 -7 0 -13 4 -13
8 0 5 -28 10 -62 11 -53 1 -71 -3 -114 -28z m120 -26 c38 -39 46 -189 12 -223
-24 -24 -62 -1 -75 45 -15 52 -14 149 1 173 15 24 41 26 62 5z"/>
<path d="M3073 3185 c-39 -16 -53 -42 -53 -92 0 -45 28 -77 96 -111 45 -23 59
-43 41 -61 -29 -29 -87 0 -107 55 -6 14 -16 24 -23 22 -17 -6 -21 -79 -5 -100
29 -40 158 -31 209 13 19 16 24 30 24 68 0 55 -10 68 -81 104 -75 38 -88 63
-41 80 21 8 67 -32 67 -58 0 -10 7 -15 18 -13 13 2 18 15 20 49 3 41 0 47 -20
53 -39 10 -111 6 -145 -9z"/>
<path d="M3390 3190 c-14 -4 -39 -8 -57 -9 -41 -1 -53 -20 -25 -39 20 -13 22
-23 22 -118 0 -94 -2 -103 -20 -109 -11 -3 -20 -13 -20 -21 0 -11 19 -14 95
-14 76 0 95 3 95 14 0 8 -9 18 -20 21 -23 7 -22 0 -22 163 0 128 0 127 -48
112z"/>
<path d="M3808 3187 c-61 -11 -80 -30 -48 -47 18 -10 20 -22 20 -115 0 -95 -2
-104 -20 -110 -11 -3 -20 -13 -20 -21 0 -11 19 -14 95 -14 76 0 95 3 95 14 0
8 -9 18 -20 21 -23 7 -22 1 -21 163 1 93 -2 122 -11 121 -7 -1 -39 -6 -70 -12z"/>
<path d="M4395 3188 c-66 -24 -95 -71 -95 -153 0 -99 39 -150 123 -161 70 -10
167 41 167 87 0 18 -2 19 -30 4 -56 -29 -120 -14 -144 34 -9 16 -13 32 -8 34
4 3 45 8 92 12 47 4 88 12 91 17 10 15 -20 84 -47 109 -27 26 -103 35 -149 17z
m75 -47 c5 -11 10 -29 10 -40 0 -18 -6 -21 -41 -21 -37 0 -40 2 -34 23 4 12 9
30 11 40 7 23 41 22 54 -2z"/>
<path d="M3930 3176 c0 -8 9 -18 21 -21 22 -7 42 -46 95 -185 30 -81 33 -85
64 -87 21 -1 33 4 37 15 21 59 98 230 111 245 8 9 21 17 29 17 7 0 13 7 13 15
0 12 -15 15 -75 15 -57 0 -75 -3 -75 -14 0 -8 11 -17 25 -20 l25 -6 -21 -58
c-29 -79 -35 -82 -57 -31 -30 70 -35 99 -17 99 8 0 15 7 15 15 0 12 -17 15
-95 15 -76 0 -95 -3 -95 -14z"/>
<path d="M2850 2810 c-14 -4 -40 -8 -57 -9 -25 -1 -33 -5 -33 -20 0 -10 9 -21
20 -24 20 -5 21 -11 18 -180 l-3 -175 61 -6 c128 -13 204 44 204 153 0 71 -31
107 -92 104 -23 0 -51 -3 -62 -5 -17 -3 -18 4 -17 85 1 48 -1 87 -6 86 -4 -1
-19 -5 -33 -9z m91 -210 c5 0 9 -6 9 -14 0 -8 4 -16 10 -18 16 -5 19 -72 4
-107 -11 -27 -17 -31 -36 -26 -35 11 -37 16 -40 85 -2 71 6 95 29 86 8 -3 19
-6 24 -6z"/>
<path d="M2180 2766 c0 -8 10 -16 23 -20 28 -7 43 -37 112 -216 51 -131 53
-135 84 -138 19 -2 31 1 31 8 0 13 89 228 123 298 12 25 30 45 42 48 12 3 22
12 22 20 0 12 -15 14 -80 12 -53 -2 -82 -7 -85 -15 -2 -7 5 -13 15 -13 43 -1
48 -14 24 -80 -12 -33 -30 -78 -39 -98 -8 -20 -15 -40 -14 -44 1 -5 -1 -8 -6
-8 -4 0 -26 50 -48 110 -39 102 -40 110 -23 115 11 4 19 13 19 21 0 11 -20 14
-100 14 -79 0 -100 -3 -100 -14z"/>
<path d="M2635 2756 c-17 -12 -18 -18 -7 -40 16 -36 67 -37 84 -2 6 14 8 32 5
40 -8 20 -56 21 -82 2z"/>
<path d="M3822 2761 c-8 -5 -12 -21 -10 -37 2 -24 8 -29 35 -32 36 -4 59 24
48 58 -7 21 -48 27 -73 11z"/>
<path d="M3648 2722 c-30 -14 -38 -23 -38 -43 0 -15 -7 -29 -15 -33 -8 -3 -15
-12 -15 -21 0 -8 7 -15 15 -15 12 0 15 -16 15 -87 0 -49 4 -93 8 -99 24 -37
97 -41 134 -7 27 24 22 33 -16 33 -33 0 -34 2 -37 43 -2 23 -3 59 -1 80 3 32
7 38 25 37 37 -3 43 -1 44 20 1 16 -4 20 -33 20 -34 0 -34 0 -34 45 0 50 0 50
-52 27z"/>
<path d="M2643 2648 c-43 -9 -57 -31 -28 -42 12 -4 15 -24 15 -91 0 -69 -3
-85 -15 -85 -8 0 -15 -7 -15 -15 0 -12 16 -15 80 -15 66 0 78 2 74 15 -4 8
-12 15 -20 15 -11 0 -14 23 -14 115 0 129 5 122 -77 103z"/>
<path d="M3147 2645 c-60 -16 -67 -23 -44 -40 15 -10 19 -27 19 -72 1 -94 -1
-100 -23 -106 -46 -12 -4 -27 77 -27 66 0 84 3 84 14 0 8 -10 16 -22 18 -21 3
-23 9 -26 72 -3 81 5 95 42 70 31 -20 42 -13 56 35 8 29 6 33 -16 43 -20 10
-29 8 -54 -11 -30 -21 -30 -21 -30 -1 0 23 1 23 -63 5z"/>
<path d="M3405 2649 c-43 -13 -64 -32 -67 -60 -2 -15 3 -24 15 -27 10 -2 17 3
17 12 0 23 30 36 57 23 42 -19 26 -48 -40 -70 -63 -21 -76 -41 -58 -90 15 -40
56 -56 90 -36 24 14 30 14 46 3 35 -26 105 -7 105 28 0 11 -4 17 -9 14 -17
-11 -30 21 -27 69 4 72 -9 112 -44 130 -32 17 -42 17 -85 4z m45 -168 c0 -38
-15 -47 -34 -20 -18 26 -11 49 15 49 14 0 19 -7 19 -29z"/>
<path d="M3823 2648 c-46 -10 -52 -18 -28 -38 11 -9 15 -34 15 -96 0 -68 -3
-84 -15 -84 -8 0 -15 -7 -15 -15 0 -12 15 -15 74 -15 72 0 111 15 67 27 -20 5
-21 12 -21 119 0 127 5 121 -77 102z"/>
<path d="M4035 2642 c-55 -26 -80 -73 -72 -138 4 -37 12 -55 35 -75 59 -53
168 -45 219 15 22 27 25 37 21 92 -2 36 -10 67 -19 76 -44 45 -124 57 -184 30z
m106 -98 c1 -19 2 -40 3 -46 3 -21 -15 -66 -28 -71 -22 -9 -46 20 -55 68 -11
59 -5 106 17 123 15 11 20 9 40 -13 12 -15 23 -41 23 -61z"/>
<path d="M4321 2645 c-47 -12 -64 -31 -37 -41 23 -9 24 -174 1 -174 -8 0 -15
-7 -15 -15 0 -12 15 -15 75 -15 60 0 75 3 75 15 0 8 -7 15 -15 15 -13 0 -15
14 -13 83 3 73 5 82 23 85 38 4 46 -12 47 -86 1 -53 -3 -75 -16 -87 -9 -9 -16
-18 -16 -21 0 -2 34 -4 75 -4 57 0 75 3 75 14 0 8 -7 16 -15 20 -12 4 -15 23
-15 81 0 48 -6 87 -15 105 -19 37 -63 47 -107 26 -28 -15 -33 -15 -40 -1 -5 8
-12 14 -16 14 -4 -1 -27 -7 -51 -14z"/>
</g>
</svg>
